<svg width="33" height="26" viewBox="0 0 33 26" fill="none" xmlns="http://www.w3.org/2000/svg">
<rect x="0.0732727" width="32" height="26" rx="13" fill="#00BB40"/>
<path fill-rule="evenodd" clip-rule="evenodd" d="M21.9371 7.14587C22.1306 7.33905 22.1306 7.65227 21.9371 7.84545L19.5749 10.2034C19.5663 10.2127 19.5574 10.2216 19.5481 10.2301L17.8509 11.9243C17.8461 11.9295 17.8412 11.9346 17.8361 11.9396C17.8054 11.9701 17.7745 12.0008 17.7432 12.0319L15.1045 14.6657C15.0736 14.6968 15.0424 14.7282 15.0109 14.7598C15.0058 14.7648 15.0007 14.7698 14.9955 14.7746L13.2987 16.4683C13.2901 16.4776 13.2811 16.4866 13.2719 16.4951L10.9085 18.8542C10.715 19.0474 10.4012 19.0474 10.2077 18.8542C10.0141 18.661 10.0141 18.3478 10.2077 18.1546L12.1337 16.2321C11.147 15.6134 10.2478 14.864 9.46109 14.0034L9.45924 14.0014C9.21078 13.7266 9.07326 13.3696 9.07326 12.9994C9.07326 12.6293 9.21079 12.2723 9.45925 11.9975L9.46406 11.9921C10.0063 11.4096 10.9005 10.5444 12.0284 9.82212C13.1538 9.10145 14.5456 8.50156 16.0733 8.50156H16.0837C17.1417 8.52364 18.1796 8.78247 19.1215 9.25681L21.2363 7.14587C21.4298 6.95268 21.7436 6.95268 21.9371 7.14587ZM17.4522 10.9231C17.0473 10.6536 16.569 10.5057 16.0751 10.5036H16.0731C15.4098 10.5036 14.7737 10.7666 14.3047 11.2348C13.8358 11.7029 13.5723 12.3379 13.5723 12.9999L13.5723 13.002C13.5744 13.495 13.7225 13.9724 13.9925 14.3766L12.8541 15.5129C11.8675 14.9201 10.9715 14.1876 10.1943 13.3377C10.1107 13.2448 10.0644 13.1243 10.0644 12.9994C10.0644 12.8752 10.1102 12.7553 10.193 12.6626C10.7037 12.1143 11.5329 11.3149 12.5636 10.6549C13.5975 9.99282 14.8006 9.49229 16.0682 9.49093C16.8658 9.50826 17.6501 9.68201 18.377 10L17.4522 10.9231Z" fill="white"/>
<path d="M21.7066 11.0301C21.5026 10.8479 21.1893 10.8653 21.0068 11.0689C20.8243 11.2725 20.8417 11.5852 21.0457 11.7674C21.4103 12.093 21.7188 12.4103 21.9523 12.6627C22.0354 12.7554 22.0813 12.8755 22.0813 13C22.0813 13.1243 22.0355 13.2442 21.9527 13.3369C21.442 13.8852 20.6128 14.6845 19.5821 15.3446C18.5469 16.0075 17.3419 16.5085 16.0724 16.5085H15.6714C15.3977 16.5085 15.1758 16.73 15.1758 17.0032C15.1758 17.2764 15.3977 17.4979 15.6714 17.4979H16.0724C17.6001 17.4979 18.9919 16.898 20.1173 16.1773C21.2453 15.455 22.1394 14.5898 22.6816 14.0073L22.6865 14.002C22.935 13.7272 23.0725 13.3702 23.0725 13C23.0725 12.6299 22.935 12.2728 22.6865 11.998L22.6828 11.994C22.4352 11.7262 22.1029 11.384 21.7066 11.0301Z" fill="white"/>
</svg>
